<svg width="1640" height="67" viewBox="0 0 1640 67" fill="none" xmlns="http://www.w3.org/2000/svg">
<g clip-path="url(#clip0_12_590)">
<path d="M32.2928 8.99982C32.3483 9.0092 32.4037 9.02585 32.4592 9.0267C33.2768 9.03523 34.0939 9.04633 34.9115 9.06382C36.0274 9.08772 37.1423 9.12826 38.2569 9.16837C39.2857 9.20549 40.3141 9.26523 41.3412 9.33905C42.7783 9.44231 44.2142 9.55539 45.648 9.70474C47.3804 9.88524 49.1009 10.1255 50.7881 10.5667C52.4885 11.0118 54.09 11.671 55.4764 12.7817C56.8393 13.8737 57.7763 15.2665 58.3793 16.8944C58.8414 18.1421 59.0851 19.4346 59.1943 20.7587C59.3048 22.0973 59.365 23.4371 59.4085 24.7791C59.4571 26.2786 59.5126 27.778 59.4793 29.2775C59.4486 30.6763 59.385 32.0742 59.2835 33.4704C59.2152 34.4121 59.1405 35.3534 59.0535 36.293C58.9583 37.3176 58.8341 38.3391 58.7305 39.3632C58.5935 40.7202 58.3917 42.0677 58.1608 43.4106C57.7947 45.5411 57.3351 47.6427 56.5252 49.664C55.3573 52.5776 53.2613 54.4606 50.3345 55.4852C48.8666 55.9989 47.3522 56.3117 45.8204 56.5473C44.4165 56.7632 43.0028 56.8882 41.5852 56.9816C40.5859 57.0474 39.587 57.1063 38.5863 57.1506C37.2089 57.2121 35.8315 57.2522 34.4532 57.2846C33.721 57.3017 32.9888 57.3013 32.2569 57.3187C30.9632 57.3495 29.6694 57.3623 28.3752 57.3418C26.9252 57.3192 25.4752 57.2991 24.0257 57.2616C22.9035 57.233 21.7816 57.1899 20.6607 57.134C19.5333 57.0777 18.4059 57.0119 17.2803 56.9245C15.0277 56.7495 12.7836 56.5084 10.5954 55.9076C9.1011 55.4971 7.65924 54.965 6.37527 54.0681C4.69404 52.8942 3.61446 51.2812 2.87625 49.3943C2.2093 47.69 1.80222 45.923 1.47152 44.133C1.21976 42.7718 1.01409 41.4029 0.846393 40.0289C0.739715 39.1554 0.662481 38.2785 0.573725 37.4029C0.49137 36.5909 0.406882 35.7793 0.332634 34.9664C0.279295 34.3797 0.236198 33.7917 0.197794 33.2041C0.0522856 30.9767 -0.00617369 28.7458 0.000226959 26.5141C0.00364064 25.3279 -0.0023333 24.1395 0.0685006 22.9541C0.167924 21.2814 0.260093 19.6074 0.702592 17.9778C1.1596 16.2957 1.91573 14.7766 3.14167 13.5178C4.1551 12.4766 5.36995 11.7406 6.71109 11.1999C8.1969 10.6008 9.75098 10.2689 11.3247 10.0154C12.6496 9.80203 13.9852 9.66975 15.3212 9.55326C16.382 9.46066 17.4437 9.38001 18.5079 9.32241C20.0257 9.24048 21.5427 9.14874 23.0626 9.10649C24.3274 9.0715 25.5917 9.02755 26.8569 9.02713C26.9482 9.02713 27.0421 9.04249 27.1296 8.99939C28.8505 8.99982 30.5719 8.99982 32.2928 8.99982ZM29.7065 55.2407C29.7065 55.2402 29.7065 55.2398 29.7065 55.239C30.8659 55.239 32.0257 55.2641 33.1838 55.233C34.7604 55.1907 36.3384 55.1677 37.9134 55.0755C38.7784 55.0248 39.645 55.0009 40.5087 54.9347C41.8601 54.831 43.2114 54.7222 44.5539 54.5234C45.8267 54.3352 47.0907 54.1129 48.3158 53.7028C50.652 52.9211 52.393 51.4673 53.438 49.213C53.9906 48.0212 54.3823 46.7765 54.681 45.5006C55.211 43.236 55.5067 40.9348 55.7554 38.6254C55.9189 37.1081 56.0541 35.5881 56.1655 34.0665C56.2526 32.8768 56.3187 31.6837 56.3358 30.4911C56.3592 28.8636 56.3686 27.2353 56.3195 25.6069C56.2739 24.087 56.2065 22.5696 56.049 21.0569C55.9265 19.8805 55.7179 18.7233 55.3031 17.6104C54.687 15.9573 53.6637 14.6332 52.1544 13.6979C50.7335 12.8176 49.1615 12.3695 47.5344 12.0862C45.7849 11.7815 44.0213 11.5917 42.2531 11.4333C40.8948 11.3122 39.5341 11.2371 38.1741 11.1517C37.2456 11.0937 36.3154 11.0531 35.3856 11.0241C34.1281 10.9849 32.8701 10.9533 31.6126 10.9388C30.8023 10.9294 29.992 10.9332 29.1812 10.9537C27.8452 10.9874 26.5079 10.9678 25.1718 11.0147C24.4827 11.0391 23.7931 11.0425 23.104 11.0655C22.458 11.0873 21.8119 11.1154 21.1667 11.1543C20.1038 11.2174 19.0409 11.2861 17.9788 11.3629C17.2922 11.4124 16.6061 11.4713 15.9212 11.5439C14.9261 11.6493 13.9323 11.764 12.9428 11.9121C11.6562 12.1046 10.3795 12.3333 9.14548 12.7643C6.32151 13.7508 4.52549 15.6723 3.79709 18.585C3.42116 20.0887 3.30723 21.6245 3.20909 23.1619C3.14337 24.1898 3.09515 25.2199 3.08406 26.2496C3.06358 28.1476 3.05931 30.0452 3.14764 31.9427C3.20141 33.0991 3.27864 34.2534 3.3674 35.4076C3.46212 36.6391 3.57478 37.8685 3.70834 39.0965C3.88286 40.6988 4.09579 42.2956 4.39961 43.8787C4.73543 45.6265 5.16384 47.347 5.89309 48.9804C6.64197 50.6578 7.74331 52.0216 9.36608 52.9288C10.5199 53.5739 11.7655 53.958 13.0537 54.217C15.0063 54.6096 16.9854 54.7926 18.9679 54.9386C19.9737 55.0124 20.9807 55.0691 21.9882 55.108C23.4441 55.1643 24.9005 55.2099 26.3568 55.2364C27.4731 55.2569 28.5902 55.2407 29.7065 55.2407Z" fill="#5F5F5F"/>
<path d="M74.3664 22.516C74.5332 22.5079 74.7001 22.493 74.8669 22.493C80.5306 22.4917 86.1939 22.4917 91.8577 22.4921C92.4572 22.4921 92.458 22.493 92.4585 23.0818C92.4593 23.7897 92.4504 24.4976 92.4623 25.2056C92.467 25.4902 92.3765 25.6156 92.0736 25.6446C91.2428 25.7244 90.4175 25.8584 89.5863 25.9339C88.5076 26.0321 87.958 26.5685 87.9196 27.7193C87.882 28.8377 87.9144 29.9587 87.9059 31.0784C87.9038 31.3553 88.0557 31.3911 88.2754 31.3899C88.9833 31.3856 89.6913 31.3886 90.3992 31.3886C93.9904 31.3886 97.5815 31.389 101.173 31.3882C101.687 31.3882 101.689 31.386 101.689 30.8778C101.689 29.8354 101.696 28.7925 101.685 27.75C101.674 26.6009 101.128 26.0428 99.9784 25.9314C99.1092 25.8473 98.2438 25.7227 97.3754 25.6271C97.16 25.6032 97.084 25.4863 97.0836 25.2964C97.081 24.4597 97.0823 23.6233 97.0831 22.7865C97.0836 22.58 97.1864 22.4802 97.3964 22.4917C97.486 22.4968 97.5764 22.4908 97.6665 22.4908C103.304 22.4908 108.942 22.4908 114.58 22.4908C115.17 22.4908 115.17 22.4917 115.171 23.0878C115.171 23.7829 115.162 24.478 115.174 25.1731C115.179 25.4612 115.116 25.6122 114.781 25.6459C113.823 25.7419 112.867 25.8597 111.916 26.0082C111.227 26.1157 110.822 26.5484 110.706 27.2371C110.653 27.5529 110.614 27.8712 110.615 28.1959C110.62 31.9032 110.62 35.61 110.615 39.3173C110.614 39.642 110.652 39.9608 110.708 40.2757C110.849 41.0728 111.393 41.4867 112.302 41.5733C113.158 41.6548 114.01 41.7811 114.865 41.8741C115.098 41.8993 115.172 42.0107 115.171 42.2257C115.167 43.0497 115.166 43.8733 115.171 44.6972C115.172 44.9281 115.068 45.0271 114.843 45.016C114.753 45.0117 114.663 45.0168 114.573 45.0168C108.935 45.0168 103.297 45.0168 97.6592 45.0168C97.0802 45.0168 97.0789 45.016 97.0776 44.4442C97.0763 43.7491 97.0827 43.054 97.0755 42.3589C97.0721 42.0619 97.1382 41.8955 97.4936 41.8622C98.4136 41.776 99.3332 41.6646 100.246 41.517C101.099 41.3787 101.575 40.8453 101.598 39.9889C101.629 38.8057 101.607 37.6207 101.614 36.4366C101.615 36.2023 101.513 36.1127 101.288 36.1191C101.031 36.1263 100.773 36.1195 100.516 36.1195C96.4994 36.1195 92.4836 36.1195 88.4675 36.1195C87.9076 36.1195 87.9072 36.1204 87.9068 36.661C87.9063 37.6262 87.9106 38.5919 87.9042 39.5571C87.9025 39.8434 87.9464 40.1229 88.0117 40.3969C88.1824 41.1112 88.6992 41.4837 89.5466 41.5707C90.4026 41.6582 91.2543 41.7824 92.1103 41.8694C92.3787 41.8967 92.4606 42.0158 92.4585 42.2646C92.4516 43.0497 92.4474 43.8349 92.4602 44.62C92.4653 44.9238 92.3445 45.0254 92.0484 45.0207C91.2376 45.0079 90.4265 45.0168 89.6157 45.0168C84.7243 45.0168 79.833 45.0173 74.942 45.016C74.7496 45.016 74.5567 45.0011 74.3643 44.9929C74.3643 43.9629 74.3643 42.9332 74.3643 41.9031C75.434 41.7734 76.5051 41.6544 77.5727 41.5097C78.3007 41.4107 78.6971 40.9567 78.8362 40.2462C78.8861 39.9911 78.8993 39.7376 78.8993 39.4803C78.8993 36.7165 78.8998 33.9527 78.8993 31.1893C78.8993 30.0325 78.9109 28.8753 78.8929 27.7189C78.8763 26.6444 78.3668 26.0718 77.347 25.9476C76.3536 25.8268 75.3585 25.7189 74.3643 25.6054C74.3664 24.5757 74.3664 23.5457 74.3664 22.516Z" fill="#5F5F5F"/>
<path d="M131.757 45.6881C131.068 45.6185 130.378 45.5601 129.691 45.4773C126.705 45.1171 123.811 44.4421 121.209 42.8539C118.262 41.0553 116.462 38.4673 116.085 35.0084C115.712 31.5857 116.621 28.5531 119.148 26.1162C120.688 24.6308 122.554 23.6873 124.572 23.0328C126.549 22.391 128.583 22.0526 130.652 21.8593C132.49 21.6878 134.329 21.6728 136.165 21.7373C139.497 21.8542 142.777 22.3065 145.864 23.6664C148.359 24.7652 150.42 26.3726 151.663 28.8659C152.567 30.6798 152.897 32.6077 152.731 34.6312C152.354 39.2017 149.749 42.0717 145.713 43.8361C143.575 44.7711 141.312 45.2426 138.999 45.485C138.336 45.5545 137.672 45.6206 137.009 45.6885C135.258 45.6881 133.507 45.6881 131.757 45.6881ZM142.316 33.6979C142.344 33.022 142.272 32.2808 142.158 31.5435C141.756 28.9444 140.395 27.1539 137.778 26.4981C135.6 25.9523 133.4 25.951 131.211 26.455C128.705 27.0319 127.212 28.6184 126.705 31.1232C126.342 32.9196 126.351 34.7238 126.733 36.5198C127.239 38.9 128.659 40.4319 131.029 41.0143C133.288 41.5695 135.567 41.5707 137.821 40.9968C140.085 40.4208 141.481 38.958 142.012 36.6755C142.235 35.7188 142.333 34.7506 142.316 33.6979Z" fill="#5F5F5F"/>
<path d="M272.104 44.9157C271.95 44.9238 271.796 44.9396 271.642 44.9396C265.554 44.9409 259.466 44.9409 253.377 44.9405C252.771 44.9405 252.77 44.9396 252.77 44.323C252.77 43.6151 252.778 42.9072 252.767 42.1993C252.763 41.9236 252.864 41.8208 253.143 41.7931C253.974 41.7111 254.802 41.5976 255.63 41.4965C255.85 41.4696 256.059 41.4073 256.255 41.3088C256.818 41.0263 256.994 40.5688 256.725 39.997C256.434 39.377 255.998 38.8449 255.626 38.274C255.496 38.0743 255.281 38.134 255.095 38.1336C251.955 38.1306 248.813 38.1315 245.673 38.1315C244.502 38.1315 243.33 38.1383 242.159 38.1268C241.885 38.1242 241.703 38.2032 241.562 38.4481C241.26 38.9717 240.926 39.4769 240.618 39.9975C240.252 40.6158 240.429 41.1453 241.087 41.4496C241.631 41.7005 242.226 41.6194 242.793 41.718C243.058 41.7641 243.329 41.7705 243.598 41.7961C244.165 41.8503 244.165 41.8507 244.166 42.4327C244.166 43.089 244.167 43.7457 244.165 44.402C244.164 44.9379 244.163 44.9401 243.634 44.9401C240.185 44.9409 236.735 44.9405 233.285 44.9405C232.255 44.9405 231.225 44.9298 230.196 44.9465C229.86 44.952 229.74 44.8423 229.749 44.5031C229.768 43.744 229.763 42.9844 229.751 42.2249C229.746 41.9377 229.84 41.8195 230.142 41.7909C230.999 41.7099 231.852 41.5942 232.706 41.4884C233.443 41.3971 233.942 40.9691 234.319 40.3572C235.656 38.1882 236.998 36.0218 238.338 33.855C239.536 31.9177 240.736 29.9813 241.932 28.0432C242.094 27.7816 242.265 27.5252 242.275 27.1962C242.296 26.5629 241.884 26.0837 241.252 26.0176C240.038 25.8909 238.825 25.7509 237.611 25.6378C237.325 25.6114 237.237 25.4992 237.241 25.2286C237.251 24.4695 237.259 23.7095 237.238 22.9504C237.228 22.5979 237.346 22.4832 237.701 22.4849C240.121 22.4972 242.54 22.4913 244.96 22.4913C247.998 22.4913 251.036 22.5135 254.074 22.4793C255.166 22.467 255.938 22.8958 256.522 23.791C259.102 27.7471 261.694 31.6958 264.281 35.6472C265.296 37.1978 266.314 38.7459 267.322 40.3017C267.854 41.1236 268.604 41.5174 269.574 41.5776C270.419 41.6301 271.261 41.7406 272.105 41.8255C272.104 42.856 272.104 43.8861 272.104 44.9157ZM248.517 34.0764C249.816 34.0764 251.115 34.0773 252.415 34.0743C252.511 34.0739 252.642 34.1238 252.697 34.0154C252.751 33.9109 252.643 33.8277 252.589 33.7457C251.249 31.7022 249.905 29.6617 248.568 27.6156C248.414 27.3792 248.335 27.3293 248.164 27.6114C246.92 29.6553 245.662 31.6903 244.411 33.7287C244.214 34.0496 244.228 34.0752 244.619 34.0756C245.918 34.0777 247.217 34.0764 248.517 34.0764Z" fill="#5F5F5F"/>
<path d="M183.251 38.9925C183.251 35.9488 183.258 33.0143 183.247 30.0803C183.243 29.194 183.323 28.3043 183.189 27.421C183.043 26.4511 182.582 26.0364 181.613 25.9374C180.757 25.8499 179.905 25.7253 179.048 25.6387C178.78 25.6113 178.689 25.4991 178.705 25.2457C178.758 24.3991 178.805 23.552 178.849 22.7046C178.859 22.5168 178.935 22.4161 179.129 22.4191C179.232 22.4204 179.335 22.4161 179.438 22.4161C183.853 22.4161 188.269 22.4157 192.684 22.4161C193.26 22.4161 193.261 22.4174 193.261 22.9888C193.262 23.7095 193.254 24.4306 193.265 25.1514C193.269 25.4193 193.183 25.538 192.897 25.567C192.118 25.6459 191.344 25.7769 190.565 25.852C189.238 25.9796 188.747 26.4887 188.711 27.8273C188.707 27.9689 188.709 28.1106 188.709 28.2518C188.709 33.6194 188.709 38.987 188.709 44.3546C188.709 44.9392 188.708 44.9405 188.113 44.9405C184.612 44.9405 181.111 44.9277 177.61 44.9473C176.586 44.9533 175.835 44.5782 175.211 43.7504C171.468 38.7873 167.696 33.8469 163.932 28.8991C163.85 28.7903 163.76 28.6871 163.664 28.5697C163.574 28.7122 163.613 28.8432 163.613 28.9657C163.61 32.338 163.609 35.7107 163.614 39.083C163.615 39.4551 163.642 39.8293 163.688 40.1989C163.79 41.0139 164.347 41.4777 165.256 41.5707C166.112 41.6582 166.964 41.7832 167.82 41.8694C168.092 41.8967 168.165 42.0192 168.162 42.2663C168.155 43.0386 168.146 43.8114 168.166 44.5829C168.175 44.9272 168.047 45.0237 167.716 45.022C165.515 45.0113 163.314 45.0164 161.113 45.0164C158.796 45.0164 156.479 45.01 154.162 45.0228C153.801 45.0249 153.655 44.9255 153.667 44.5453C153.691 43.7994 153.682 43.0523 153.671 42.306C153.667 42.0252 153.749 41.8937 154.056 41.8647C154.887 41.7862 155.713 41.6556 156.543 41.5741C157.682 41.4623 158.214 40.8756 158.222 39.6365C158.233 37.9117 158.225 36.1869 158.225 34.4617C158.225 32.3508 158.225 30.2399 158.225 28.1285C158.225 27.9996 158.229 27.8708 158.221 27.7423C158.152 26.545 157.637 26.0355 156.454 25.9284C155.623 25.8533 154.797 25.7253 153.967 25.6306C153.757 25.6067 153.675 25.5051 153.676 25.305C153.678 24.4682 153.678 23.6318 153.676 22.7951C153.676 22.5873 153.771 22.4861 153.982 22.4925C154.084 22.4959 154.188 22.4912 154.29 22.4912C159.182 22.4912 164.073 22.4912 168.965 22.4912C169.171 22.4912 169.377 22.4887 169.582 22.4964C170.371 22.5245 170.997 22.8138 171.494 23.4727C175.295 28.5207 179.116 33.5541 182.93 38.5919C183.014 38.7028 183.103 38.8086 183.251 38.9925Z" fill="#5F5F5F"/>
<path d="M207.41 44.9405C202.732 44.9405 198.87 44.9409 195.008 44.94C194.456 44.94 194.455 44.9383 194.454 44.3857C194.453 43.665 194.462 42.9439 194.45 42.2232C194.445 41.9347 194.541 41.8221 194.842 41.7905C195.8 41.6902 196.757 41.5763 197.708 41.4244C198.404 41.3134 198.808 40.8803 198.918 40.1954C198.973 39.8541 199.003 39.5046 199.004 39.1585C199.009 35.4509 199.006 31.7436 199.01 28.0359C199.011 27.7116 198.977 27.392 198.922 27.0767C198.827 26.5335 198.501 26.1789 197.97 26.0193C197.262 25.8064 196.523 25.8119 195.798 25.7112C194.523 25.5341 194.791 25.7987 194.762 24.5962C194.749 24.0172 194.768 23.4377 194.757 22.8582C194.753 22.5988 194.841 22.4673 195.113 22.4917C195.177 22.4976 195.242 22.4917 195.306 22.4917C202.721 22.4921 210.136 22.4767 217.551 22.5023C220.206 22.5117 222.807 22.9192 225.268 23.9749C227.853 25.0831 229.861 26.804 230.907 29.4867C231.583 31.2196 231.761 33.0199 231.593 34.8692C231.445 36.4852 231.012 38.0013 230.161 39.3868C229.112 41.0958 227.619 42.3111 225.835 43.1773C223.675 44.2253 221.37 44.7361 218.987 44.8568C214.858 45.0655 210.725 44.8722 207.41 44.9405ZM207.784 33.7526C207.784 35.8498 207.783 37.9471 207.784 40.0448C207.784 40.5876 207.785 40.5897 208.307 40.5897C210.598 40.5906 212.888 40.594 215.178 40.5867C215.717 40.585 216.255 40.5782 216.794 40.5044C219.042 40.198 220.364 39.0531 220.879 36.8449C221.328 34.9175 221.297 32.9674 220.971 31.0237C220.788 29.9369 220.387 28.9431 219.556 28.1729C218.617 27.302 217.451 26.976 216.223 26.9525C213.574 26.9026 210.922 26.9324 208.272 26.9098C207.873 26.9064 207.773 27.0395 207.776 27.4215C207.792 29.532 207.784 31.6425 207.784 33.7526Z" fill="#5F5F5F"/>
<path d="M15.5451 13.0866C16.1207 13.0874 16.017 13.0132 16.1301 13.5342C17.3697 19.2461 18.6481 24.9491 20.1036 30.6107C20.4894 32.1115 20.9156 33.5998 21.551 35.0199C22.515 37.1765 24.1493 38.4532 26.4889 38.8176C27.1563 38.9217 27.8271 38.9683 28.5021 38.9977C29.4695 39.0399 30.4364 39.0233 31.4008 38.9759C32.5243 38.9205 33.635 38.7643 34.677 38.2932C35.9013 37.7393 36.8153 36.856 37.46 35.6873C38.1133 34.5027 38.5341 33.226 38.8899 31.9301C39.9055 28.2314 40.8276 24.5092 41.6644 20.7657C42.2157 18.2989 42.7538 15.8291 43.2902 13.3588C43.3367 13.145 43.4216 13.0708 43.6444 13.0802C44.872 13.1301 46.0992 13.1796 47.3192 13.3375C47.4587 13.3554 47.5018 13.4186 47.4937 13.5466C47.4455 14.2835 47.3994 15.0204 47.3508 15.7574C47.3162 16.2814 47.2765 16.8054 47.2419 17.3294C47.1711 18.406 47.1016 19.483 47.0337 20.56C46.9868 21.3042 46.9458 22.0484 46.8976 22.7925C46.8323 23.8055 46.7619 24.8186 46.6953 25.8316C46.6484 26.5399 46.6053 27.2487 46.5579 27.957C46.4901 28.9768 46.4201 29.9967 46.3523 31.0169C46.3066 31.7039 46.2635 32.3914 46.2174 33.0784C46.1491 34.0982 46.0787 35.118 46.01 36.1379C45.9639 36.8249 45.9221 37.5123 45.8731 38.1993C45.8082 39.1057 45.7361 40.0111 45.6699 40.9175C45.6222 41.5759 45.5816 42.2347 45.5325 42.8931C45.4681 43.7636 45.3977 44.6341 45.3311 45.5046C45.2842 46.1203 45.2407 46.7365 45.1925 47.3522C45.1263 48.2014 45.0576 49.0501 44.9893 49.8993C44.9292 50.6494 44.8694 51.3992 44.8088 52.1493C44.782 52.4817 44.7461 52.8137 44.7278 53.1465C44.7197 53.2925 44.6578 53.3394 44.5195 53.3522C43.8415 53.4154 43.1652 53.5063 42.4858 53.5506C41.3521 53.6249 40.2166 53.674 39.082 53.7273C38.7551 53.7427 38.7564 53.7324 38.6749 53.4154C38.0988 51.1726 37.5633 48.9187 36.8038 46.7276C36.5874 46.1024 36.3344 45.4931 36.0523 44.894C35.4558 43.6275 34.4607 42.9192 33.0927 42.6815C31.6709 42.4348 30.2397 42.3679 28.8034 42.4348C27.8471 42.4792 26.8892 42.5492 25.9517 42.7673C24.8307 43.028 24.0101 43.6783 23.4802 44.696C22.8922 45.8242 22.5145 47.0322 22.1505 48.2441C21.6334 49.9659 21.2084 51.7124 20.7556 53.4516C20.6967 53.6787 20.6007 53.7439 20.3767 53.7337C19.2912 53.6842 18.206 53.6334 17.1213 53.5707C16.3695 53.5272 15.6215 53.4563 14.8751 53.3573C14.7117 53.3356 14.6665 53.2682 14.6545 53.1137C14.579 52.1374 14.4902 51.1619 14.4126 50.1856C14.3469 49.3646 14.2927 48.5432 14.2287 47.7222C14.1502 46.7105 14.064 45.6992 13.9863 44.687C13.9347 44.0145 13.8946 43.3412 13.8451 42.6687C13.7802 41.7837 13.7098 40.8995 13.6454 40.0145C13.5959 39.3348 13.5532 38.6546 13.505 37.9749C13.4393 37.0472 13.3693 36.12 13.3053 35.1927C13.2549 34.4631 13.2122 33.733 13.1636 33.0033C13.0983 32.0261 13.0283 31.0489 12.9635 30.0714C12.9136 29.3203 12.8709 28.5689 12.8218 27.8179C12.7569 26.8335 12.6878 25.8491 12.6225 24.8646C12.588 24.3475 12.5585 23.8299 12.5248 23.3127C12.4578 22.2856 12.3883 21.2585 12.3226 20.2314C12.2735 19.4591 12.2312 18.6863 12.1817 17.914C12.1169 16.9009 12.0478 15.8879 11.9812 14.8749C11.9517 14.4286 11.9261 13.9818 11.8941 13.5359C11.8839 13.3955 11.9471 13.3507 12.0781 13.3383C12.5939 13.2893 13.1077 13.218 13.624 13.1817C14.2684 13.1352 14.9148 13.116 15.5451 13.0866Z" fill="#5F5F5F"/>
</g>
<rect width="224.133" height="66.5394" transform="translate(368.104 0.000610352)" fill="white"/>
<path d="M581.884 35.7587L583.192 35.6532C583.728 35.611 584.264 35.5477 584.757 35.4845C586.043 35.2946 587.136 34.9571 588.036 34.493C588.379 34.3242 588.55 34.1977 588.936 33.9234C590.072 33.1218 590.651 32.046 590.737 30.5694C590.758 30.274 590.737 30.042 590.715 29.7888C590.651 28.8607 590.437 28.0802 590.051 27.4684C589.601 26.7301 588.958 26.1605 588.1 25.7386C587.243 25.3167 586.15 25.0003 584.885 24.8105C584.885 24.8105 583.02 24.5151 580.256 24.5151H559.122V42.045H565.766V35.8853H574.79L584.95 42.0661H592.237L581.884 35.7587ZM578.862 26.5613C578.905 26.5613 578.927 26.5613 578.969 26.5613C579.72 26.5824 580.363 26.6035 580.92 26.6668C581.627 26.7512 582.227 26.8989 582.699 27.152C583.192 27.4051 583.578 27.7848 583.771 28.2489C583.964 28.6497 584.049 29.156 584.071 29.7678C584.071 29.8099 584.092 30.6537 584.049 31.0756C584.028 31.4975 583.921 31.9616 583.771 32.278C583.621 32.6156 583.406 32.8898 583.106 33.1218C583.02 33.1851 582.935 33.2484 582.849 33.2906C582.42 33.5226 581.884 33.6703 581.199 33.7547C580.577 33.818 579.784 33.8602 578.841 33.8602H565.723V26.5613H578.862Z" fill="#5F5F5F"/>
<path d="M389.924 24.5362V32.7843C389.924 35.2524 389.002 37.0876 387.18 38.2268C385.615 39.2182 383.343 39.7245 380.45 39.7245H368.104V42.066H378.349C381.2 42.066 383.815 41.9605 386.108 41.7496C388.359 41.5386 390.267 41.1167 391.81 40.4839C393.31 39.8722 394.489 38.9862 395.303 37.847C396.032 36.8134 396.439 35.4633 396.525 33.7968C396.525 33.6492 396.547 33.4593 396.547 33.2484V24.5362H389.924Z" fill="#5F5F5F"/>
<path d="M465.992 34.029V39.7246H455.854C450.539 39.7246 447.452 38.037 446.616 34.7462C446.273 33.3751 446.488 32.0672 446.616 31.582C447.431 28.249 450.474 26.6247 455.854 26.6247H471.715V24.5363H457.933C455.04 24.5363 452.425 24.6418 450.132 24.8316C447.902 25.0215 445.973 25.4434 444.43 26.0551C442.908 26.6669 441.751 27.5318 440.958 28.6709C440.186 29.7467 439.8 31.2023 439.758 32.9954C439.758 33.0375 439.758 33.0797 439.758 33.143C439.758 33.2274 439.758 33.3118 439.758 33.4172C439.779 35.2736 440.186 36.7713 440.979 37.8683C441.794 39.0074 442.973 39.8934 444.473 40.5051C446.016 41.138 447.945 41.5599 450.174 41.7708C452.468 41.9818 455.061 42.0872 457.933 42.0872H472.616V34.029H465.992Z" fill="#5F5F5F"/>
<path d="M421.71 24.5363H414.872L399.547 42.0661H403.512L406.963 38.1214H426.232L429.683 42.0661H437.056L421.71 24.5363ZM416.587 27.1099L424.582 36.244H408.614L416.587 27.1099Z" fill="#5F5F5F"/>
<path d="M531.022 24.5363L515.697 42.0661H519.662L523.113 38.1003H542.36L545.811 42.0661H553.206L537.88 24.5363H531.022ZM540.753 36.244H524.763L532.758 27.1099L540.753 36.244Z" fill="#5F5F5F"/>
<path d="M506.073 24.5363V33.4172C506.073 34.1767 505.966 34.8728 505.816 35.5056C504.959 38.7331 501.894 40.3785 496.621 40.3996H495.956C490.662 40.3996 487.576 38.7121 486.74 35.4424C486.59 34.8306 486.504 34.1556 486.504 33.4383V24.5363H479.86V33.6915C479.86 35.59 480.267 37.151 481.081 38.2902C481.596 38.9863 482.239 39.6191 483.01 40.1254C483.482 40.4207 483.996 40.695 484.575 40.927C485.154 41.1591 485.775 41.37 486.461 41.5388C487.597 41.8341 488.883 42.045 490.298 42.1927C492.077 42.3615 494.092 42.4669 496.278 42.4669C498.486 42.4669 500.479 42.3615 502.258 42.1927C503.651 42.0661 504.937 41.8552 506.073 41.5599C506.759 41.3911 507.381 41.1802 507.959 40.9481C508.538 40.7161 509.052 40.4629 509.524 40.1465C510.317 39.6402 510.96 39.0285 511.453 38.3113C512.267 37.1721 512.675 35.6111 512.675 33.7126V24.5363H506.073Z" fill="#5F5F5F"/>
<rect width="78.7967" height="66.5394" transform="translate(688.237 0.000610352)" fill="white"/>
<path d="M699.421 23.0483C703.521 11.1631 714.855 3.13253 727.635 3.13253C740.416 3.13253 751.749 11.1631 755.849 23.0483V23.1286H764.852V22.0846L761.154 21.6831C758.823 21.4422 758.341 20.3982 757.698 19.1133L757.537 18.7921C752.151 7.38872 740.416 0.000610352 727.635 0.000610352C714.855 0.000610352 703.119 7.38872 697.653 18.7921L697.492 19.1133C696.93 20.3982 696.367 21.4422 694.116 21.6831L690.338 22.0846V23.1286H699.341L699.421 23.0483Z" fill="#5F5F5F"/>
<path d="M755.929 42.8839V42.9642C751.749 54.8494 740.416 62.8799 727.635 62.8799C714.855 62.8799 703.521 54.8494 699.421 42.9642V42.8839H690.338V43.9278L694.116 44.3293C696.447 44.5703 696.93 45.6142 697.573 46.8991L697.733 47.2203C703.039 58.6237 714.855 66.0119 727.635 66.0119C740.416 66.0119 752.151 58.6237 757.617 47.2203L757.778 46.8991C758.421 45.6142 758.903 44.6506 761.234 44.3293L765.012 43.9278V42.8839H755.929Z" fill="#5F5F5F"/>
<path d="M706.495 28.8303H704.405V37.9851H706.495V28.8303Z" fill="#5F5F5F"/>
<path d="M699.502 37.9048V28.8303H697.492V35.6562L690.82 28.8303H688.248V37.9048H690.258V31.0788L697.01 37.9048H699.502Z" fill="#5F5F5F"/>
<path d="M745.238 28.8303L739.611 37.9851H742.023L742.987 36.379H749.498L750.463 37.9851H752.874L747.248 28.8303H745.238ZM748.534 34.6123H744.032L746.283 30.9182L748.534 34.6123Z" fill="#5F5F5F"/>
<path d="M733.905 36.0579C733.824 36.0579 733.583 36.0579 733.503 36.0579H725.063V37.9049H733.583C733.664 37.9049 734.146 37.9049 734.226 37.9049C735.995 37.7443 736.718 36.3791 736.718 35.0942C736.718 33.8093 735.914 32.5244 734.307 32.3638C734.066 32.3638 733.824 32.3638 733.664 32.3638H728.117C727.876 32.3638 727.715 32.3638 727.474 32.2835C727.072 32.2032 726.831 31.882 726.912 31.4805C726.912 31.0789 727.153 30.7577 727.555 30.6774C727.715 30.5971 727.957 30.5971 728.117 30.5971H736.155V28.7501H728.037C727.796 28.7501 727.474 28.7501 727.233 28.8304C725.867 28.991 724.822 30.1153 724.822 31.4805C724.822 32.6047 725.545 33.9699 727.153 34.1305C727.474 34.1305 727.715 34.2108 728.037 34.1305H733.423C733.503 34.1305 733.744 34.1305 733.824 34.1305C734.307 34.2108 734.628 34.6124 734.628 35.0139C734.628 35.576 734.307 35.9776 733.905 36.0579Z" fill="#5F5F5F"/>
<path d="M719.115 36.0578C719.034 36.0578 718.793 36.0578 718.713 36.0578H710.353V37.9048H718.793C718.874 37.9048 719.356 37.9048 719.436 37.9048C721.205 37.7442 722.009 36.379 722.009 35.1744C722.009 33.9698 721.205 32.6046 719.597 32.444C719.356 32.444 719.115 32.444 718.954 32.444H713.408C713.167 32.444 713.006 32.444 712.765 32.3637C712.363 32.2834 712.122 31.9622 712.202 31.5607C712.202 31.1591 712.443 30.8379 712.845 30.7576C713.006 30.6773 713.247 30.6773 713.408 30.6773H721.446V28.8303H713.247C713.006 28.8303 712.684 28.8303 712.443 28.9106C711.077 29.0712 710.032 30.1955 710.032 31.5607C710.032 32.6849 710.755 34.0501 712.363 34.2107C712.684 34.2107 712.925 34.291 713.247 34.2107H718.632C718.713 34.2107 718.954 34.2107 719.034 34.2107C719.517 34.291 719.838 34.6926 719.838 35.0941C719.919 35.5759 719.517 35.9775 719.115 36.0578Z" fill="#5F5F5F"/>
<path d="M767.022 37.9048V28.8303H765.012V35.6562L758.341 28.8303H755.769V37.9048H757.778V31.0788L764.53 37.9048H767.022Z" fill="#5F5F5F"/>
<path d="M761.797 60.4708C762.761 60.4708 763.565 61.2738 763.565 62.2375C763.565 63.2012 762.761 64.0042 761.797 64.0042C760.832 64.0042 760.028 63.2012 760.028 62.2375C760.028 61.7557 760.189 61.3541 760.591 60.9526C760.832 60.6314 761.314 60.3905 761.797 60.4708ZM761.797 63.6027C762.199 63.6027 762.52 63.4421 762.761 63.2012C763.002 62.9602 763.163 62.5587 763.163 62.2375C763.163 61.5147 762.52 60.8723 761.797 60.9526C761.073 60.9526 760.43 61.595 760.43 62.3178C760.43 62.9602 760.993 63.6027 761.797 63.6027ZM761.073 63.1208V61.3541C761.314 61.3541 761.475 61.2738 761.716 61.2738C762.038 61.2738 762.52 61.3541 762.52 61.7557C762.52 61.9966 762.359 62.1572 762.118 62.1572C762.279 62.2375 762.359 62.3981 762.44 62.5587C762.44 62.7193 762.52 62.8799 762.601 62.9602H762.199C762.118 62.7996 762.118 62.639 762.038 62.5587C761.957 62.3178 761.797 62.3178 761.475 62.3178V63.0405L761.073 63.1208ZM761.475 62.0769C761.797 62.0769 762.118 62.0769 762.118 61.836C762.118 61.6753 762.038 61.595 761.716 61.595C761.636 61.595 761.556 61.595 761.475 61.595V62.0769Z" fill="#5F5F5F"/>
<rect width="224.133" height="66.5394" transform="translate(863.034 0.000610352)" fill="white"/>
<g clip-path="url(#clip1_12_590)">
<path d="M866.834 27.128L874.553 40.9354L883.476 40.9586L891.053 27.128H894.854V24.6133H883.429V27.128H886.733L881.21 37.1866L875.615 27.128H879.628V24.6133H863.034V27.128H866.834Z" fill="#5F5F5F"/>
<path d="M965.103 27.128V24.6367H980.399V27.128H976.599V38.4207H980.14C983.421 38.4207 985.569 36.2786 985.569 33.3914H988.095V40.9587H965.127V38.3974H968.974V27.1048H965.103V27.128Z" fill="#5F5F5F"/>
<path d="M928.019 24.2641C920.347 24.2641 916.264 28.0361 916.264 32.786C916.264 37.5825 920.182 41.4243 928.066 41.4243C935.951 41.4243 939.822 37.5825 939.822 32.786C939.822 28.0594 935.714 24.2641 928.019 24.2641ZM927.948 38.8398C925.139 38.7932 923.912 35.7431 923.959 32.6929C924.006 29.5495 925.541 26.802 928.161 26.8486C930.781 26.8952 932.174 29.6892 932.126 32.8326C932.079 35.7896 930.828 38.8864 927.948 38.8398Z" fill="#5F5F5F"/>
<path d="M1014.15 27.128L1021.87 40.9354L1030.8 40.9586L1038.37 27.128H1042.17V24.6133H1030.75V27.128H1034.05L1028.53 37.1866L1022.94 27.128H1026.95V24.6133H1010.35V27.128H1014.15Z" fill="#5F5F5F"/>
<path d="M1075.34 24.2641C1067.67 24.2641 1063.58 28.0361 1063.58 32.786C1063.58 37.5825 1067.5 41.4243 1075.39 41.4243C1083.27 41.4243 1087.14 37.5825 1087.14 32.786C1087.14 28.0594 1083.04 24.2641 1075.34 24.2641ZM1075.27 38.8398C1072.46 38.7932 1071.23 35.7431 1071.28 32.6929C1071.33 29.5495 1072.86 26.802 1075.48 26.8486C1078.1 26.8952 1079.49 29.6892 1079.45 32.8326C1079.4 35.7896 1078.15 38.8864 1075.27 38.8398Z" fill="#5F5F5F"/>
</g>
<rect width="143.585" height="66.5394" transform="translate(1183.17 0.000610352)" fill="white"/>
<path d="M1301.63 58.1219C1295.94 58.1219 1290.5 56.2517 1286.1 52.7631C1281.71 56.2158 1276.27 58.1219 1270.57 58.1219C1264.88 58.1219 1259.44 56.2517 1255.04 52.7631C1250.65 56.2158 1245.21 58.1219 1239.51 58.1219C1233.82 58.1219 1228.38 56.2517 1223.98 52.7631C1219.59 56.2158 1214.15 58.1219 1208.45 58.1219C1201.82 58.1219 1195.59 55.6044 1190.87 51.0009C1186.08 46.3974 1183.41 40.2474 1183.3 33.7019C1183.19 27.1203 1185.64 20.8984 1190.22 16.1151C1194.76 11.3678 1200.92 8.63449 1207.55 8.4187H1207.66H1209.24C1214.65 8.59852 1219.77 10.4687 1223.95 13.7415C1228.09 10.4687 1233.21 8.59852 1238.61 8.4187L1238.72 11.2239V8.4187H1240.31C1245.71 8.59852 1250.83 10.4687 1255.01 13.7415C1259.19 10.4687 1264.27 8.59852 1269.71 8.4187H1269.82H1271.4C1276.81 8.59852 1281.92 10.4687 1286.1 13.7415C1290.25 10.4687 1295.36 8.59852 1300.8 8.4187L1300.91 11.2239V8.4187H1302.5C1309.09 8.63449 1315.25 11.3678 1319.83 16.1151C1324.41 20.8625 1326.86 27.1203 1326.75 33.6659C1326.64 40.2474 1323.97 46.3974 1319.25 51.0009C1314.46 55.6044 1308.23 58.1219 1301.63 58.1219ZM1290.21 48.6991C1293.42 51.0368 1297.38 52.4395 1301.63 52.4395C1312.12 52.4395 1320.8 43.9878 1320.95 33.6299C1321.13 23.2721 1312.77 14.5687 1302.32 14.173H1300.95C1296.95 14.3169 1293.27 15.6836 1290.25 17.8774C1293.85 22.373 1295.72 27.9116 1295.65 33.7019C1295.51 39.2045 1293.63 44.4193 1290.21 48.6991ZM1259.15 48.6991C1262.36 51.0368 1266.32 52.4395 1270.57 52.4395C1274.82 52.4395 1278.75 51.0368 1281.96 48.6991C1278.57 44.4553 1276.66 39.2045 1276.55 33.7019C1276.45 27.9116 1278.36 22.373 1281.96 17.8774C1278.93 15.6836 1275.26 14.3169 1271.26 14.173H1269.89C1265.89 14.3169 1262.21 15.6836 1259.19 17.8774C1262.79 22.373 1264.66 27.9116 1264.59 33.7019C1264.45 39.2045 1262.54 44.4193 1259.15 48.6991ZM1228.05 48.6991C1231.26 51.0368 1235.22 52.4395 1239.48 52.4395C1243.73 52.4395 1247.66 51.0368 1250.86 48.6991C1247.48 44.4553 1245.57 39.2045 1245.46 33.7019C1245.35 27.9116 1247.26 22.373 1250.86 17.8774C1247.84 15.6836 1244.16 14.3169 1240.16 14.173H1238.79C1234.79 14.3169 1231.12 15.6836 1228.09 17.8774C1231.69 22.373 1233.57 27.9116 1233.49 33.7019C1233.35 39.2045 1231.44 44.4193 1228.05 48.6991ZM1207.7 14.1371C1197.25 14.4967 1188.89 23.2361 1189.07 33.594C1189.25 43.9518 1197.89 52.4035 1208.38 52.4035C1212.63 52.4035 1216.56 51.0009 1219.77 48.6632C1216.38 44.4193 1214.47 39.1685 1214.36 33.6659C1214.25 27.8756 1216.16 22.337 1219.77 17.8414C1216.74 15.6476 1213.06 14.2809 1209.06 14.1371H1207.7ZM1255.01 21.9414C1252.56 25.2142 1251.15 29.2422 1251.22 33.594C1251.3 37.6939 1252.7 41.5062 1255.01 44.5992C1257.31 41.5062 1258.72 37.6939 1258.79 33.594C1258.86 29.2422 1257.42 25.2142 1255.01 21.9414ZM1223.91 21.9414C1221.46 25.2142 1220.05 29.2422 1220.13 33.594C1220.2 37.6939 1221.6 41.5062 1223.91 44.5992C1226.22 41.5062 1227.62 37.6939 1227.69 33.594C1227.77 29.2422 1226.36 25.2142 1223.91 21.9414ZM1286.07 21.9414C1283.62 25.2142 1282.21 29.2422 1282.28 33.594C1282.36 37.6939 1283.76 41.5062 1286.07 44.5992C1288.37 41.5062 1289.78 37.6939 1289.85 33.594C1289.96 29.2422 1288.52 25.2142 1286.07 21.9414Z" fill="#5F5F5F"/>
<rect width="217.129" height="66.5394" transform="translate(1422.75 0.000610352)" fill="white"/>
<path d="M1501.41 21.1752H1507.33L1520.59 43.0605H1514.31L1504.41 26.3628L1499.14 35.198H1507.66L1510.21 39.3318H1496.87L1494.48 43.0199H1488.19L1501.41 21.1752ZM1605.72 43.101H1612.01L1614.4 39.4129H1627.75L1625.19 35.2791H1616.67L1621.95 26.4439L1631.84 43.1416H1638.13L1624.87 21.2562H1618.95L1605.72 43.101ZM1520.23 32.1583V35.0764C1520.35 40.8315 1523.6 43.2631 1528.62 43.1416H1545.17V38.6429H1528.66C1525.91 38.7239 1525.7 36.8192 1525.62 34.9143V32.1584V29.2809C1525.7 27.5787 1525.91 25.6334 1528.66 25.6739H1545.17V21.1753H1528.62C1523.6 21.0537 1520.39 23.526 1520.23 29.2405V32.1583ZM1583.05 25.8765H1596.36C1598.22 25.8765 1599.15 26.6871 1599.15 28.2677C1599.15 29.8888 1598.22 30.6589 1596.36 30.6589H1584.43L1585.49 35.3602H1595.67C1597.65 35.3196 1598.79 36.6976 1598.95 38.6025L1599.11 43.1011H1604.39C1604.39 43.1011 1604.35 38.8862 1604.22 38.0351C1604.1 37.184 1603.74 34.8333 1601.67 33.6985C1606.54 30.4968 1604.75 21.2159 1597.77 21.2159H1577.7V43.101H1583.05L1583.05 25.8765ZM1561.27 43.101H1565.94C1571.7 42.9795 1574.13 39.7372 1574.01 34.7117V21.1752H1568.74V35.8059C1568.82 38.5618 1566.87 38.7644 1565 38.8455H1561.27H1557.34C1555.64 38.7645 1553.69 38.5618 1553.73 35.8059V21.1752H1548.34V34.7522C1548.21 39.7777 1550.69 42.9795 1556.41 43.101H1561.27ZM1473.85 30.9242C1473.4 22.7374 1470.6 16.7392 1466.79 13.4564C1462.65 9.93046 1454.95 8.55248 1448.98 8.59303C1443.02 8.55248 1435.32 9.93046 1431.18 13.4564C1427.37 16.7393 1424.57 22.7375 1424.12 30.9242C1423.72 38.6244 1425.38 47.0138 1429.76 51.7557C1433.98 56.4164 1442.41 57.8754 1448.94 57.8754C1455.47 57.9159 1463.91 56.4164 1468.13 51.7557C1472.51 46.9733 1474.21 38.5839 1473.85 30.9242ZM1447.56 10.6599C1448.37 10.6194 1448.58 10.6194 1448.94 10.6194C1449.31 10.6194 1449.47 10.6194 1450.32 10.6599L1450.36 28.5734C1450.12 28.5734 1447.77 28.5734 1447.52 28.5734C1447.52 28.5734 1447.52 10.6599 1447.56 10.6599ZM1427.41 38.4621C1427.16 35.3821 1426.23 24.1557 1430.69 17.7522C1432.6 14.9558 1435.4 13.0915 1438.24 12.1188C1442.17 10.7409 1446.87 10.6598 1446.87 10.6598C1445.05 15.1585 1441.28 24.8042 1440.55 26.9521C1439.66 29.5864 1438.88 31.086 1438.11 35.8278C1437.63 39.7186 1436.78 49.4048 1436.53 53.6198C1431.26 51.1071 1428.1 46.3248 1427.41 38.4621ZM1448.9 55.8084C1445.21 55.768 1440.67 55.4032 1437.06 53.8631C1438.28 50.6208 1444.08 36.6791 1447.28 31.2483C1447.52 31.2483 1450.32 31.2483 1450.57 31.2483C1453.73 36.6791 1459.57 50.6208 1460.79 53.8631C1457.14 55.4436 1452.63 55.768 1448.9 55.8084ZM1470.44 38.422C1469.75 46.325 1466.59 51.0668 1461.31 53.6201C1461.07 49.4051 1460.22 39.7189 1459.73 35.8281C1458.96 31.0457 1458.19 29.5867 1457.3 26.9524C1456.57 24.8043 1452.8 15.1586 1450.97 10.66C1450.97 10.66 1455.68 10.741 1459.61 12.119C1462.45 13.0917 1465.25 14.9964 1467.15 17.7524C1471.61 24.1559 1470.68 35.3821 1470.44 38.422Z" fill="#5F5F5F"/>
<defs>
<clipPath id="clip0_12_590">
<rect width="272.104" height="66.54" fill="white"/>
</clipPath>
<clipPath id="clip1_12_590">
<rect width="224.133" height="17.1835" fill="white" transform="translate(863.034 24.2408)"/>
</clipPath>
</defs>
</svg>
