<svg width="1197" height="400" viewBox="0 0 1197 400" fill="none" xmlns="http://www.w3.org/2000/svg">
<path opacity="0.1" d="M157.324 400V286.783C157.324 234.667 168.547 191.536 190.993 157.391C214.337 123.246 248.006 100.783 292 90V137.174C265.065 144.362 245.761 157.841 234.089 177.609C222.418 196.478 215.684 221.188 213.888 251.739H265.065V400H157.324ZM0 400V286.783C0 234.667 11.223 191.536 33.6689 157.391C57.0127 123.246 90.6816 100.783 134.676 90V137.174C107.74 144.362 88.437 157.841 76.7651 177.609C65.0932 196.478 58.3594 221.188 56.5638 251.739H107.74V400H0Z" fill="#1572D3"/>
<path opacity="0.1" d="M1046.68 227V118.53C1046.68 68.6 1035.96 27.2783 1014.51 -5.43477C992.205 -38.1479 960.035 -59.6696 918 -70V-24.8044C943.736 -17.9174 962.18 -5.00437 973.332 13.9348C984.485 32.0131 990.919 55.687 992.634 84.9565H943.736V227H1046.68ZM1197 227V118.53C1197 68.6 1186.28 27.2783 1164.83 -5.43477C1142.53 -38.1479 1110.36 -59.6696 1068.32 -70V-24.8044C1094.06 -17.9174 1112.5 -5.00437 1123.65 13.9348C1134.8 32.0131 1141.24 55.687 1142.95 84.9565H1094.06V227H1197Z" fill="#1572D3"/>
</svg>
